<svg width="82" height="81" viewBox="0 0 82 81" fill="none" xmlns="http://www.w3.org/2000/svg">
<g clip-path="url(#clip0_2_30)">
<path fill-rule="evenodd" clip-rule="evenodd" d="M50.7921 71.3699L31.0444 51.6222L53.6222 29.0444L74.7889 50.2111L74.7015 50.2984C79.5758 56.5615 79.1345 65.621 73.3777 71.3777C67.6209 77.1345 58.5615 77.5758 52.2984 72.7015L52.2111 72.7889L50.8079 71.3856C50.8052 71.383 50.8026 71.3804 50.8 71.3777C50.7973 71.3751 50.7947 71.3725 50.7921 71.3699Z" fill="#FF0000"/>
<path fill-rule="evenodd" clip-rule="evenodd" d="M33.8666 9.28888L53.6222 29.0444L31.0444 51.6222L11.2889 31.8666L9.87777 30.4555L9.96511 30.3682C5.09084 24.1051 5.53209 15.0457 11.2889 9.28888C17.0457 3.53209 26.1051 3.09084 32.3682 7.96511L32.4555 7.87777L33.8666 9.28888Z" fill="#215B39"/>
</g>
<defs>
<clipPath id="clip0_2_30">
<rect width="82" height="81" fill="white"/>
</clipPath>
</defs>
</svg>
